<svg width="100" height="100" viewBox="0 0 100 100" fill="none" xmlns="http://www.w3.org/2000/svg">
  <!-- Circle glow background -->
  <circle cx="50" cy="50" r="45" fill="url(#paint0_radial)" />
  
  <!-- Stylized "G" lettermark -->
  <path d="M60 35C55.5817 35 52 38.5817 52 43C52 47.4183 55.5817 51 60 51C64.4183 51 68 47.4183 68 43C68 38.5817 64.4183 35 60 35ZM60 45C58.8954 45 58 44.1046 58 43C58 41.8954 58.8954 41 60 41C61.1046 41 62 41.8954 62 43C62 44.1046 61.1046 45 60 45Z" fill="url(#paint1_linear)"/>
  
  <!-- Small sparkle elements -->
  <path d="M42 32L45 35L48 32L45 29L42 32Z" fill="url(#paint2_linear)"/>
  <path d="M35 50L38 53L41 50L38 47L35 50Z" fill="url(#paint3_linear)"/>
  <path d="M42 68L45 71L48 68L45 65L42 68Z" fill="url(#paint4_linear)"/>
  <path d="M60 65L63 68L66 65L63 62L60 65Z" fill="url(#paint5_linear)"/>
  
  <!-- Main sparkle element -->
  <path d="M50 30L55 50L50 70L45 50L50 30Z" fill="url(#paint6_linear)"/>
  <path d="M30 50L50 45L70 50L50 55L30 50Z" fill="url(#paint7_linear)"/>
  
  <!-- Gradient definitions -->
  <defs>
    <radialGradient id="paint0_radial" cx="0" cy="0" r="1" gradientUnits="userSpaceOnUse" gradientTransform="translate(50 50) rotate(90) scale(45)">
      <stop offset="0" stop-color="#F0F5FF" />
      <stop offset="1" stop-color="#F0F5FF" stop-opacity="0" />
    </radialGradient>
    
    <linearGradient id="paint1_linear" x1="52" y1="35" x2="68" y2="51" gradientUnits="userSpaceOnUse">
      <stop offset="0" stop-color="#6373F7" />
      <stop offset="1" stop-color="#3F3DD3" />
    </linearGradient>
    
    <linearGradient id="paint2_linear" x1="42" y1="32" x2="48" y2="32" gradientUnits="userSpaceOnUse">
      <stop offset="0" stop-color="#36C9F8" />
      <stop offset="1" stop-color="#0CAEE8" />
    </linearGradient>
    
    <linearGradient id="paint3_linear" x1="35" y1="50" x2="41" y2="50" gradientUnits="userSpaceOnUse">
      <stop offset="0" stop-color="#FDC44D" />
      <stop offset="1" stop-color="#F98009" />
    </linearGradient>
    
    <linearGradient id="paint4_linear" x1="42" y1="68" x2="48" y2="68" gradientUnits="userSpaceOnUse">
      <stop offset="0" stop-color="#36C9F8" />
      <stop offset="1" stop-color="#0CAEE8" />
    </linearGradient>
    
    <linearGradient id="paint5_linear" x1="60" y1="65" x2="66" y2="65" gradientUnits="userSpaceOnUse">
      <stop offset="0" stop-color="#6373F7" />
      <stop offset="1" stop-color="#3F3DD3" />
    </linearGradient>
    
    <linearGradient id="paint6_linear" x1="50" y1="30" x2="50" y2="70" gradientUnits="userSpaceOnUse">
      <stop offset="0" stop-color="#6373F7" />
      <stop offset="0.5" stop-color="#36C9F8" />
      <stop offset="1" stop-color="#FDC44D" />
    </linearGradient>
    
    <linearGradient id="paint7_linear" x1="30" y1="50" x2="70" y2="50" gradientUnits="userSpaceOnUse">
      <stop offset="0" stop-color="#FDC44D" />
      <stop offset="0.5" stop-color="#36C9F8" />
      <stop offset="1" stop-color="#6373F7" />
    </linearGradient>
  </defs>
</svg>